<?xml version="1.0" encoding="UTF-8"?>
<svg version="1.1" xmlns="http://www.w3.org/2000/svg" width="512" height="512">
<path d="M0 0 C1.08000785 -0.00445668 1.08000785 -0.00445668 2.18183404 -0.0090034 C4.58903343 -0.01765928 6.9961829 -0.01919601 9.40339661 -0.02069092 C11.1317302 -0.02532134 12.86006277 -0.0303463 14.58839417 -0.03573608 C19.28076825 -0.04884148 23.97312804 -0.05530154 28.66551757 -0.05974674 C31.59955712 -0.06268078 34.53359279 -0.06678624 37.46763039 -0.07125092 C46.65453612 -0.08492163 55.84143295 -0.09459008 65.02834815 -0.09845281 C75.62011917 -0.10293111 86.21176098 -0.12047023 96.80349272 -0.1494534 C104.99901377 -0.17109819 113.19449854 -0.1811586 121.39004785 -0.18249393 C126.28083633 -0.18354005 131.17150329 -0.18940667 136.06226158 -0.20731354 C140.66615501 -0.22384237 145.26983618 -0.22592643 149.87374878 -0.21717453 C151.55790591 -0.2164067 153.24207468 -0.22071319 154.92620277 -0.23063278 C166.56301445 -0.29512162 177.19501042 -0.27662896 186.05500793 8.17169189 C191.20989047 14.17183231 193.08517531 20.9223893 192.95735168 28.70684814 C192.30687721 36.2113962 189.39727668 42.17958524 183.74641418 47.14044189 C176.61760275 51.84554809 170.45856229 52.84139323 162.05110168 52.62872314 C160.97764496 52.62164841 159.90418823 52.61457367 158.79820251 52.60728455 C155.40519878 52.57953235 152.01391017 52.51682844 148.62141418 52.45294189 C146.30633403 52.42783432 143.99122773 52.40502549 141.67610168 52.38458252 C136.03169725 52.33404165 130.39095109 52.23614806 124.74641418 52.14044189 C124.74641418 60.39044189 124.74641418 68.64044189 124.74641418 77.14044189 C127.37352356 77.09403564 130.00063293 77.04762939 132.70735168 76.99981689 C135.28236463 76.96852536 137.85735553 76.94429246 140.43244934 76.92071533 C142.20728708 76.9007335 143.98206012 76.87353834 145.75666809 76.83868408 C157.29166454 76.61798072 166.09076576 76.87078064 176.05891418 83.26544189 C183.23468242 90.94184512 184.4441278 98.74273891 184.37141418 108.95294189 C184.37141418 111.14699095 184.38396443 113.34108428 184.41047668 115.53497314 C184.40483704 116.49250488 184.39919739 117.45003662 184.39338684 118.43658447 C184.85082878 121.94015952 186.23247986 124.62650757 188.74641418 127.14044189 C190.99287381 127.26293813 193.24292554 127.32031136 195.49250793 127.35137939 C196.90202384 127.37949409 198.31152886 127.40815873 199.72102356 127.43731689 C201.93903251 127.47823328 204.15684833 127.5151162 206.37507629 127.54180908 C228.01078995 127.82466074 228.01078995 127.82466074 235.62141418 134.70294189 C236.32008606 135.30235596 237.01875793 135.90177002 237.73860168 136.51934814 C243.36163136 143.85991801 244.32309934 151.61977065 244.13703918 160.61700439 C244.13137939 161.66826508 244.1257196 162.71952576 244.11988831 163.80264282 C244.09769462 167.12406089 244.04753007 170.44435598 243.99641418 173.76544189 C243.97632722 176.03235328 243.95808032 178.29928176 243.94172668 180.56622314 C243.89788558 186.09138815 243.82897691 191.61572536 243.74641418 197.14044189 C249.02641418 197.14044189 254.30641418 197.14044189 259.74641418 197.14044189 C259.66391418 195.20169189 259.58141418 193.26294189 259.49641418 191.26544189 C259.50523244 183.16146094 261.53886283 177.58162488 265.87141418 170.82794189 C276.05860828 161.30513003 288.33816689 161.74242251 301.4153595 162.05596924 C315.61038599 162.57036798 326.71173086 166.89041614 336.54719543 177.34356689 C341.82333717 184.05354466 345.84426018 191.85112486 345.89358521 200.49568176 C345.90431816 201.79269264 345.90431816 201.79269264 345.91526794 203.11590576 C345.9193013 204.52712708 345.9193013 204.52712708 345.92341614 205.96685791 C345.93327293 207.46278725 345.93327293 207.46278725 345.94332886 208.98893738 C345.96304415 212.29074176 345.97472238 215.59250063 345.98469543 218.89434814 C345.98877096 220.02433668 345.99284649 221.15432522 345.99704552 222.31855583 C346.01790162 228.30288383 346.03220372 234.28718894 346.0415802 240.27154541 C346.05262602 246.43602612 346.08700656 252.60014403 346.1267519 258.7644968 C346.1529712 263.5182103 346.16127692 268.27183817 346.16486168 273.0256176 C346.16971615 275.29686869 346.18129737 277.56811625 346.19989967 279.83929634 C346.22439708 283.02923938 346.22330617 286.21825474 346.21638489 289.40826416 C346.22919495 290.33490875 346.242005 291.26155334 346.25520325 292.21627808 C346.16597071 303.58155242 341.67760362 313.80020491 333.93391418 322.07794189 C322.51666674 332.75859273 309.94239716 334.51164725 294.87141418 334.57794189 C293.56043762 334.61081299 292.24946106 334.64368408 290.89875793 334.67755127 C281.67797541 334.72841817 274.61871353 333.50884482 267.61238098 327.22711182 C261.35854399 320.85813717 259.60011903 314.34427297 259.55891418 305.57794189 C259.62078918 303.78356689 259.68266418 301.98919189 259.74641418 300.14044189 C254.46641418 300.14044189 249.18641418 300.14044189 243.74641418 300.14044189 C243.77783508 301.83402832 243.77783508 301.83402832 243.80989075 303.56182861 C243.88285886 307.79232865 243.92841831 312.02277426 243.96614075 316.25372314 C243.98612783 318.07706082 244.01332704 319.90033545 244.048172 321.72344971 C244.44447715 343.00736748 244.44447715 343.00736748 237.73860168 351.76153564 C236.69059387 352.66065674 236.69059387 352.66065674 235.62141418 353.57794189 C234.93821106 354.19540283 234.25500793 354.81286377 233.55110168 355.44903564 C224.00221513 361.207626 213.3523511 360.56894632 202.58796692 360.52862549 C200.75875028 360.53269606 198.9295361 360.53804066 197.10032654 360.54455566 C192.15619533 360.55817632 187.21225293 360.55295262 182.26811862 360.54341841 C177.08201022 360.53579568 171.89591742 360.54287455 166.70980835 360.5475769 C158.00363782 360.55302637 149.29754379 360.54586358 140.59138489 360.53155518 C130.53930614 360.51522512 120.48740992 360.52052305 110.43533558 360.53703439 C101.78876451 360.55066619 93.14224825 360.55256079 84.4956699 360.54471838 C79.33840606 360.54005185 74.18122792 360.53938904 69.02396965 360.54932785 C64.17539968 360.55802008 59.32706419 360.55193443 54.47851944 360.53464508 C52.70364457 360.5306925 50.92874983 360.53179313 49.15388298 360.53843307 C34.86341719 360.58694946 24.83086213 359.2077584 14.18147278 348.75494385 C12.41455038 346.9675193 10.65261563 345.17515494 8.89485168 343.37872314 C7.94960348 342.42210806 7.00367911 341.46616068 6.05711365 340.510849 C2.05846613 336.472649 -1.92708026 332.42160441 -5.90983582 328.36773682 C-8.35487131 325.87999519 -10.80717086 323.39960101 -13.26388168 320.92339134 C-14.64785621 319.52373945 -16.02313529 318.11550675 -17.39826965 316.70716858 C-18.23949371 315.85926254 -19.08071777 315.01135651 -19.94743347 314.13775635 C-20.68434418 313.3881514 -21.42125488 312.63854645 -22.18049622 311.8662262 C-25.46391594 309.13287872 -28.37399568 309.01837199 -32.52799988 308.99859619 C-33.36276855 308.99156174 -34.19753723 308.98452728 -35.05760193 308.97727966 C-35.95243286 308.97311539 -36.84726379 308.96895111 -37.76921082 308.96466064 C-39.67937803 308.94145751 -41.58953431 308.91733998 -43.49967957 308.89239502 C-46.49926528 308.85734511 -49.4984495 308.82796493 -52.49821472 308.81451416 C-55.40153715 308.7989615 -58.30369846 308.75870404 -61.20671082 308.71466064 C-62.53681183 308.71752327 -62.53681183 308.71752327 -63.89378357 308.72044373 C-71.86654701 308.56528459 -78.5540727 305.83995501 -84.25358582 300.14044189 C-88.30894575 294.02868132 -90.38745777 288.73596251 -90.36711121 281.35015869 C-90.36699791 279.96929329 -90.36699791 279.96929329 -90.36688232 278.56053162 C-90.36172104 277.5801442 -90.35655975 276.59975677 -90.35124207 275.58966064 C-90.34982712 274.57571732 -90.34841217 273.56177399 -90.34695435 272.5171051 C-90.3413691 269.28735368 -90.32881926 266.05767227 -90.31608582 262.82794189 C-90.31106891 260.63458352 -90.30650634 258.44122406 -90.30241394 256.24786377 C-90.29225656 250.87867465 -90.27267817 245.5096364 -90.25358582 240.14044189 C-98.17358582 240.14044189 -106.09358582 240.14044189 -114.25358582 240.14044189 C-114.21878113 242.69536377 -114.18397644 245.25028564 -114.14811707 247.88262939 C-114.12464531 250.38815191 -114.10647227 252.89366165 -114.08879089 255.39923096 C-114.07380906 257.12552474 -114.05341642 258.85178115 -114.02726746 260.57794189 C-113.67564891 284.40526935 -113.67564891 284.40526935 -122.28092957 293.44903564 C-128.22748832 298.5477682 -134.84925741 300.463649 -142.56217957 300.35137939 C-150.20511901 299.75236818 -156.18511004 296.87979354 -161.25358582 291.14044189 C-166.7199717 283.25990674 -166.97322917 275.62416662 -166.90055847 266.30255127 C-166.90734682 264.82962468 -166.91625675 263.35670658 -166.92710876 261.88380432 C-166.9497646 257.91049665 -166.9411233 253.93784329 -166.92521334 249.96452522 C-166.91248262 245.79052192 -166.92431424 241.61657161 -166.93214417 237.44256592 C-166.94121998 230.43534369 -166.92930739 223.42838565 -166.90544128 216.42120361 C-166.87823382 208.34008087 -166.88704947 200.25958905 -166.91457331 192.17848158 C-166.93732261 185.21846635 -166.94043615 178.25864015 -166.92737997 171.29859972 C-166.9196173 167.15118614 -166.91845541 163.00406833 -166.93506241 158.85667419 C-166.9495932 154.95588596 -166.93933061 151.05590467 -166.91059113 147.15520287 C-166.90402587 145.7306826 -166.9057992 144.30609344 -166.91690445 142.88160133 C-166.97764761 134.29275356 -166.37858943 127.27781446 -161.25358582 120.14044189 C-155.50213012 114.42864777 -148.82042986 111.63864306 -140.81608582 110.76544189 C-131.90617158 111.7033276 -125.20084159 114.23173599 -119.25358582 121.14044189 C-114.73021146 128.05006011 -114.10225201 134.57380164 -114.15592957 142.72247314 C-114.15734451 143.53665207 -114.15875946 144.35083099 -114.16021729 145.18968201 C-114.16579265 147.77747345 -114.17834057 150.36517681 -114.19108582 152.95294189 C-114.196104 154.71270627 -114.20066635 156.472472 -114.20475769 158.23223877 C-114.21490101 162.53503398 -114.23448112 166.8376399 -114.25358582 171.14044189 C-106.33358582 171.14044189 -98.41358582 171.14044189 -90.25358582 171.14044189 C-90.2883905 168.57391846 -90.32319519 166.00739502 -90.35905457 163.36309814 C-90.38251482 160.85098378 -90.40069445 158.33888207 -90.41838074 155.82672119 C-90.43337851 154.09359183 -90.45378354 152.36049985 -90.47990417 150.62750244 C-90.51668784 148.12260665 -90.53340233 145.61821669 -90.54655457 143.11309814 C-90.56203842 142.35021988 -90.57752228 141.58734161 -90.59347534 140.80134583 C-90.59592931 132.78630175 -88.39278011 125.39081334 -83.25358582 119.14044189 C-73.24159992 109.84200511 -61.62974197 110.79354103 -48.7877655 110.75958252 C-46.64558204 110.75006593 -44.50482422 110.71634412 -42.36296082 110.67950439 C-41.09420105 110.67128662 -39.82544128 110.66306885 -38.51823425 110.65460205 C-34.71154632 110.05507432 -33.5320593 109.19071821 -31.25358582 106.14044189 C-30.52819425 103.38144035 -30.52819425 103.38144035 -30.31608582 100.39044189 C-29.13320343 92.00829257 -25.665849 86.98144908 -19.39030457 81.46466064 C-12.44353712 77.15944279 -6.15579449 76.72249621 1.80891418 76.84747314 C2.84080872 76.85171799 3.87270325 76.85596283 4.93586731 76.8603363 C8.20632385 76.87702389 11.47614635 76.91465795 14.74641418 76.95294189 C16.97426982 76.96800154 19.20213519 76.9816877 21.43000793 76.99395752 C26.86924617 77.02433301 32.30712702 77.08307441 37.74641418 77.14044189 C37.74641418 68.89044189 37.74641418 60.64044189 37.74641418 52.14044189 C34.32524231 52.19844971 30.90407043 52.25645752 27.37922668 52.31622314 C24.039732 52.35529589 20.70026346 52.38561091 17.360672 52.4151001 C15.05228647 52.44013507 12.74397935 52.47417343 10.43586731 52.51763916 C7.10428953 52.57877563 3.77376606 52.60676296 0.44172668 52.62872314 C-0.57847565 52.65452957 -1.59867798 52.680336 -2.64979553 52.70692444 C-10.5724995 52.70997674 -17.15946218 50.80048874 -23.16639709 45.43043518 C-28.32181567 40.01193661 -30.37140261 34.09690506 -30.69108582 26.70294189 C-30.43859094 18.76582053 -27.28762555 12.45685614 -21.96061707 6.64434814 C-15.53984174 0.987601 -8.29902112 0.0191718 0 0 Z M-10.25358582 21.14044189 C-12.59881517 24.02557167 -12.59881517 24.02557167 -12.12858582 27.64044189 C-11.57280376 31.08159158 -11.57280376 31.08159158 -9.64725494 32.83538246 C-6.35195033 34.63202525 -3.82783986 34.51812276 -0.07987976 34.52139282 C0.64350444 34.52607279 1.36688865 34.53075277 2.11219358 34.53557456 C4.53667745 34.54754278 6.96059797 34.53806047 9.38508606 34.52862549 C11.12300954 34.53269039 12.86093044 34.53803181 14.59884644 34.54455566 C19.31986629 34.5582448 24.04068969 34.55292402 28.76171303 34.54341841 C33.6992865 34.5358301 38.636843 34.54286511 43.57441711 34.5475769 C51.86664351 34.55303687 60.15878979 34.54583651 68.45100403 34.53155518 C78.04181384 34.51522821 87.63243234 34.52051654 97.22323751 34.53703439 C105.45347785 34.55064239 113.68366054 34.55257228 121.91390848 34.54471838 C126.83132978 34.54003809 131.74866112 34.5394268 136.66607666 34.54932785 C141.28884284 34.55798524 145.91136203 34.5519981 150.53410149 34.53464508 C152.23205594 34.53067367 153.93003113 34.53182546 155.62797737 34.53843307 C157.94316953 34.54661298 160.25756682 34.53637075 162.57270813 34.52139282 C163.86908455 34.52026175 165.16546097 34.51913067 166.50112152 34.51796532 C169.95074843 34.11667178 171.34809446 33.60674017 173.74641418 31.14044189 C174.91021299 27.57145889 175.05561856 25.85649412 173.55891418 22.39044189 C171.59244394 19.94930642 170.64408075 19.23171786 167.74641418 18.14044189 C164.46093689 17.83584241 164.46093689 17.83584241 160.73129272 17.87974548 C159.67177608 17.87400716 159.67177608 17.87400716 158.59085506 17.86815292 C156.22409398 17.85783439 153.85757602 17.86181283 151.49079895 17.86578369 C149.79390742 17.86143658 148.09701786 17.85625344 146.40013123 17.85029602 C141.79065316 17.8368948 137.18125703 17.83632859 132.57176328 17.83885932 C128.724739 17.83992824 124.87773136 17.83504769 121.03071064 17.8302539 C111.95570792 17.81915489 102.88074658 17.81872356 93.80574036 17.82476807 C84.44103598 17.83080957 75.07648178 17.81849326 65.71180302 17.797198 C57.67348445 17.77959042 49.63521371 17.77357929 41.59687656 17.77683574 C36.79510887 17.77865005 31.99344832 17.77599772 27.19169807 17.7621212 C22.6764623 17.74956115 18.1614609 17.75146963 13.64622879 17.76453209 C11.98900334 17.76690138 10.33176148 17.76415057 8.67455482 17.75590897 C6.41226996 17.74546936 4.15077559 17.75351905 1.88851929 17.76622009 C0.62256204 17.76605235 -0.64339521 17.76588461 -1.94771481 17.76571178 C-5.5464587 18.17363989 -7.39396393 18.95615457 -10.25358582 21.14044189 Z M55.74641418 52.14044189 C55.74641418 60.39044189 55.74641418 68.64044189 55.74641418 77.14044189 C72.57641418 77.14044189 89.40641418 77.14044189 106.74641418 77.14044189 C106.74641418 68.89044189 106.74641418 60.64044189 106.74641418 52.14044189 C89.91641418 52.14044189 73.08641418 52.14044189 55.74641418 52.14044189 Z M-11.25358582 99.14044189 C-12.10334963 101.80207501 -12.69934821 104.17081267 -13.19108582 106.89044189 C-14.83752443 114.39904631 -16.73411638 119.83626282 -23.16203308 124.53570557 C-31.26964883 129.18276449 -39.51662247 128.82291705 -48.56608582 128.76544189 C-50.87294786 128.76157983 -53.17903393 128.76510202 -55.48580933 128.78604126 C-56.91041464 128.79803214 -58.33524042 128.79562414 -59.75976562 128.77633667 C-64.0981572 128.80080984 -66.85080867 129.40601914 -70.25358582 132.14044189 C-72.40977362 135.47973141 -72.50676684 138.23526451 -72.51428223 142.16177368 C-72.52136703 143.39548203 -72.52845184 144.62919037 -72.53575134 145.90028381 C-72.53345758 147.26467932 -72.53094789 148.62907448 -72.52824402 149.99346924 C-72.53259198 151.43258428 -72.53777542 152.871697 -72.54373169 154.31080627 C-72.55712497 158.21789854 -72.55769992 162.12489409 -72.55516839 166.03200483 C-72.55409874 169.2948839 -72.55898198 172.5577434 -72.56377381 175.82061827 C-72.57487048 183.51968895 -72.57530574 191.21871084 -72.56925964 198.91778564 C-72.56322096 206.85670725 -72.57552775 214.79545158 -72.59682971 222.73434293 C-72.61445256 229.55315606 -72.62044593 236.3719128 -72.61719197 243.19074786 C-72.6153798 247.2620549 -72.61800847 251.33323554 -72.63190651 255.40452194 C-72.64449114 259.23442706 -72.6425349 263.0640562 -72.62949562 266.89395714 C-72.62713153 268.29759121 -72.62985859 269.70124474 -72.63811874 271.10485649 C-72.64860116 273.0249264 -72.63867459 274.94507505 -72.62780762 276.86514282 C-72.62797536 277.93844534 -72.6281431 279.01174786 -72.62831593 280.11757469 C-72.18815544 283.66825465 -71.08684941 286.08392442 -69.25358582 289.14044189 C-65.94985958 290.79230501 -62.25937108 290.34117394 -58.62467957 290.38653564 C-56.84928456 290.41950361 -55.07389405 290.45271471 -53.29850769 290.48614502 C-50.50321381 290.53333226 -47.70793414 290.57770355 -44.91252136 290.61724854 C-42.21220346 290.65732969 -39.51227632 290.70881433 -36.81217957 290.76153564 C-35.98995407 290.7699498 -35.16772858 290.77836395 -34.32058716 290.78703308 C-19.40605852 291.09975722 -11.55324087 296.36810725 -1.30436707 306.86700439 C-0.36069614 307.82137091 0.58380221 308.77491991 1.52908325 309.72769165 C4.00149565 312.22275635 6.46558944 314.7258522 8.92707825 317.23168945 C12.8750302 321.2501634 16.83073313 325.26087911 20.79564857 329.2626152 C22.1738455 330.65745387 23.54535602 332.05888898 24.91674805 333.4604187 C25.75474442 334.30824921 26.59274078 335.15607971 27.45613098 336.02960205 C28.55697273 337.15067856 28.55697273 337.15067856 29.68005371 338.29440308 C33.93756094 342.0979619 37.56668357 342.43136551 43.14117432 342.40113831 C44.26194424 342.40687663 44.26194424 342.40687663 45.40535599 342.41273087 C47.91030817 342.42305388 50.41503085 342.41907009 52.91999817 342.4151001 C54.71541049 342.41944695 56.51082094 342.42463001 58.30622864 342.43058777 C63.18429196 342.44399166 68.06227787 342.44455491 72.94035602 342.44202447 C77.01105947 342.44095573 81.08174719 342.44583562 85.15244728 342.45062989 C94.75482644 342.46172982 104.35716648 342.4621597 113.95954895 342.45611572 C123.86956585 342.45007408 133.77944083 342.46239068 143.68943352 342.48368579 C152.19483898 342.50129141 160.70019923 342.5073048 169.20562226 342.50404805 C174.28684443 342.50223344 179.36796537 342.50488913 184.44917107 342.51876259 C189.22705076 342.53131945 194.00470893 342.52941715 198.78258514 342.5163517 C200.53656399 342.51398172 202.29055833 342.51673567 204.04451942 342.52497482 C206.43816145 342.53540847 208.83105549 342.52736931 211.22467041 342.5146637 C211.91942126 342.52203798 212.61417211 342.52941227 213.32997602 342.53701001 C217.63541667 342.48890186 220.32835434 341.78003314 223.74641418 339.14044189 C226.1416194 335.54763408 226.03209515 332.97619828 226.01383972 328.82797241 C226.02063639 327.70235879 226.02063639 327.70235879 226.02757037 326.5540055 C226.04026028 324.03213707 226.03859106 321.51048332 226.03694153 318.98858643 C226.04292392 317.18346884 226.0497288 315.37835382 226.05729675 313.57324219 C226.0749935 308.66413614 226.07965368 303.75509977 226.08092833 298.84596491 C226.08282547 294.75045719 226.09018089 290.65496578 226.09727252 286.55946434 C226.11356808 276.89813468 226.11844041 267.23684231 226.11701965 257.57550049 C226.11581794 247.60355341 226.13692304 237.63182267 226.16850698 227.65993035 C226.19464347 219.10358889 226.20538805 210.5473182 226.20410883 201.99093711 C226.20359842 196.87836285 226.20932527 191.76598077 226.23046494 186.6534462 C226.24980307 181.84516497 226.25000218 177.03726012 226.23543167 172.22896576 C226.23333695 170.46369504 226.2380838 168.69840103 226.25015259 166.93317032 C226.26555798 164.52396173 226.25632922 162.11605853 226.2408905 159.70687866 C226.25632119 158.65789278 226.25632119 158.65789278 226.27206361 157.58771527 C226.22259895 154.09712369 225.78804174 152.20616426 223.90300941 149.2300396 C220.19171898 145.63404539 216.35453617 145.98149925 211.48078918 145.92950439 C210.01853865 145.90142319 208.55629922 145.87275865 207.09407043 145.84356689 C204.79899051 145.80243467 202.50411512 145.76553066 200.20881653 145.73907471 C197.9865427 145.71126632 195.76519813 145.66538835 193.54328918 145.61700439 C192.52884735 145.61212509 192.52884735 145.61212509 191.49391174 145.60714722 C183.96654802 145.41543777 178.10223208 142.49623171 172.67219543 137.35357666 C166.45272344 130.2060724 166.21270781 120.71939607 166.24641418 111.70294189 C166.25407494 109.60006547 166.24438662 107.49703548 166.21516418 105.39434814 C166.2196759 104.47983887 166.22418762 103.56532959 166.22883606 102.62310791 C165.5988939 99.38126488 164.25359062 98.21505445 161.74641418 96.14044189 C158.88378208 94.70912584 156.43865369 95.00452258 153.23754883 94.99327087 C152.56149812 94.98959419 151.8854474 94.9859175 151.18891031 94.9821294 C148.9127419 94.97107429 146.63661912 94.96724565 144.36042786 94.96343994 C142.73279677 94.9571767 141.10516713 94.95053002 139.47753906 94.94352722 C135.04771597 94.92610529 130.61790368 94.91556234 126.1880548 94.90732169 C123.42174768 94.90217435 120.65544392 94.89609852 117.88913918 94.88981056 C109.23777389 94.87075565 100.58641717 94.85652483 91.93503493 94.84819859 C81.94138552 94.83842229 71.94795736 94.81209384 61.95438594 94.7716977 C54.2345842 94.74156112 46.51484598 94.72673208 38.79498655 94.72341758 C34.18204365 94.72106439 29.56933705 94.71206914 24.95645714 94.68695641 C20.61685776 94.66371338 16.27765089 94.65942713 11.93800545 94.66971779 C10.34527152 94.67021417 8.75251851 94.66386352 7.15984344 94.65016174 C4.98483361 94.63249715 2.81124076 94.63952041 0.63623047 94.6526947 C-0.58070401 94.65030635 -1.79763849 94.647918 -3.05144978 94.64545727 C-6.90800959 95.2416024 -8.54804153 96.36705865 -11.25358582 99.14044189 Z M-147.25358582 132.14044189 C-148.58177247 134.7968152 -148.38557677 136.80696728 -148.39402771 139.78286743 C-148.39973785 140.98306015 -148.405448 142.18325287 -148.41133118 143.41981506 C-148.41257658 144.75686635 -148.41370167 146.09391776 -148.41471863 147.43096924 C-148.41934595 148.83362458 -148.4243705 150.23627867 -148.42976379 151.63893127 C-148.44289771 155.45507493 -148.44933463 159.27120099 -148.45377445 163.08736372 C-148.45670347 165.47040132 -148.46080794 167.85343409 -148.46527863 170.23646927 C-148.47895592 177.6891488 -148.48862154 185.14181731 -148.49248052 192.59450853 C-148.49696257 201.20373475 -148.51451622 209.8128023 -148.54348111 218.42198026 C-148.56508144 225.07256217 -148.57518391 231.72309938 -148.57652164 238.373716 C-148.57757082 242.34775106 -148.5835025 246.32163702 -148.60134125 250.29563522 C-148.61779364 254.03356678 -148.61999139 257.7712367 -148.61120224 261.50919151 C-148.61006205 263.53615084 -148.62380112 265.56310137 -148.63795471 267.5900116 C-148.63238556 268.79584396 -148.62681641 270.00167633 -148.62107849 271.24404907 C-148.62254505 272.29229544 -148.62401161 273.3405418 -148.62552261 274.42055321 C-148.19647239 277.55809927 -147.47647629 278.90964178 -145.25358582 281.14044189 C-141.88598395 282.31207859 -141.88598395 282.31207859 -138.25358582 282.14044189 C-134.82616953 280.0541885 -133.52877545 278.96601079 -132.25358582 275.14044189 C-132.15649262 273.27434775 -132.11861609 271.40495674 -132.11314392 269.53634644 C-132.10743378 268.36988083 -132.10172363 267.20341522 -132.09584045 266.00160217 C-132.0947226 264.72049057 -132.09360474 263.43937897 -132.092453 262.1194458 C-132.08782408 260.7576738 -132.08279932 259.3959031 -132.07740784 258.03413391 C-132.06428983 254.33368112 -132.05784017 250.63324647 -132.05339718 246.93277407 C-132.05046577 244.62091484 -132.04636086 242.30906056 -132.04189301 239.99720383 C-132.02822029 232.76397335 -132.01855226 225.5307542 -132.01469111 218.2975117 C-132.01020933 209.94752571 -131.99265498 201.59770333 -131.96369052 193.24776709 C-131.94207817 186.79332602 -131.93198709 180.338931 -131.93065 173.88445413 C-131.92960174 170.02944867 -131.92368951 166.17459705 -131.90583038 162.31962967 C-131.88935708 158.69330486 -131.88719043 155.06724968 -131.89596939 151.4409008 C-131.89710739 149.4773602 -131.88338469 147.51382857 -131.86921692 145.55033875 C-131.87478607 144.37823349 -131.88035522 143.20612823 -131.88609314 141.99850464 C-131.8838933 140.47371207 -131.8838933 140.47371207 -131.88164902 138.91811562 C-132.31741161 135.66378233 -133.34079337 133.78618306 -135.25358582 131.14044189 C-139.93181647 128.07035303 -142.8248241 129.11023651 -147.25358582 132.14044189 Z M279.74641418 183.14044189 C277.77941928 186.21724666 277.49249547 188.64313987 277.47898865 192.25737 C277.47045868 193.2905838 277.46192871 194.32379761 277.45314026 195.38832092 C277.45404663 196.51622543 277.454953 197.64412994 277.45588684 198.80621338 C277.44916962 199.9984552 277.44245239 201.19069702 277.43553162 202.41906738 C277.41978984 205.68563072 277.4131767 208.95204145 277.41190004 212.21863818 C277.41047753 214.26031821 277.40620609 216.30197167 277.40090561 218.3436451 C277.38240967 225.4687176 277.37423459 232.59371532 277.37580872 239.71881104 C277.37701055 246.35701382 277.35589913 252.99489168 277.32432139 259.63301224 C277.29816076 265.33589945 277.2874413 271.03868052 277.28871953 276.74162728 C277.28922917 280.14618582 277.28354565 283.55045545 277.26236343 286.95495415 C277.24281002 290.752004 277.24850035 294.54821304 277.26057434 298.34527588 C277.24933533 299.47115616 277.23809631 300.59703644 277.22651672 301.7570343 C277.24665692 307.83811388 277.24665692 307.83811388 279.65177917 313.31513977 C284.28436566 317.35205786 289.48727673 316.36265376 295.37141418 316.39044189 C296.440047 316.41106689 297.50867981 316.43169189 298.60969543 316.45294189 C306.8153583 316.49331416 313.56767296 315.60682607 319.99641418 310.01544189 C320.62032043 309.49723877 321.24422668 308.97903564 321.88703918 308.44512939 C327.06947531 302.02152159 328.33887142 295.30857714 328.26399231 287.24957275 C328.27100159 286.30525894 328.27801086 285.36094513 328.28523254 284.38801575 C328.30271357 281.29346557 328.29122581 278.19984371 328.27766418 275.10528564 C328.28036171 272.94012783 328.2842463 270.7749712 328.28926086 268.6098175 C328.29514234 264.083368 328.28663553 259.55723529 328.26789856 255.03082275 C328.24509646 249.24163349 328.2582491 243.45318558 328.28218842 237.6640234 C328.29667113 233.19690913 328.29202923 228.72996945 328.28167725 224.26284981 C328.27901752 222.12869745 328.28225305 219.994529 328.29159546 217.86039543 C328.30180317 214.87381105 328.28620113 211.88841298 328.26399231 208.9019165 C328.27208923 208.02844574 328.28018616 207.15497498 328.28852844 206.2550354 C328.18616835 198.79010602 325.83643973 192.62731659 320.43391418 187.32794189 C313.13220743 180.47869133 304.33294364 179.95371932 294.74641418 179.89044189 C293.96524231 179.86981689 293.18407043 179.84919189 292.37922668 179.82794189 C287.44481697 179.79471355 283.96056151 180.28818364 279.74641418 183.14044189 Z M-114.25358582 189.14044189 C-114.25358582 200.03044189 -114.25358582 210.92044189 -114.25358582 222.14044189 C-106.33358582 222.14044189 -98.41358582 222.14044189 -90.25358582 222.14044189 C-90.25358582 211.25044189 -90.25358582 200.36044189 -90.25358582 189.14044189 C-98.17358582 189.14044189 -106.09358582 189.14044189 -114.25358582 189.14044189 Z M243.74641418 215.14044189 C243.74641418 237.25044189 243.74641418 259.36044189 243.74641418 282.14044189 C249.02641418 282.14044189 254.30641418 282.14044189 259.74641418 282.14044189 C259.74641418 260.03044189 259.74641418 237.92044189 259.74641418 215.14044189 C254.46641418 215.14044189 249.18641418 215.14044189 243.74641418 215.14044189 Z " fill="#FFFFFF" transform="translate(166.2535858154297,75.85955810546875)"/>
</svg>
