<?xml version="1.0" encoding="UTF-8"?>
<svg version="1.1" xmlns="http://www.w3.org/2000/svg" width="512" height="512">
<path d="M0 0 C2.09711062 -0.00570948 4.19421814 -0.01267597 6.2913208 -0.02079773 C11.96296128 -0.03868187 17.63444664 -0.03756947 23.30610681 -0.03185534 C28.05232732 -0.02875614 32.79851835 -0.03486419 37.54473466 -0.04089409 C48.74843548 -0.05492261 59.95206003 -0.05339239 71.15576172 -0.04199219 C82.68752432 -0.03051696 94.21905419 -0.04458061 105.75078613 -0.07138866 C115.67557732 -0.09359133 125.6002957 -0.10017262 135.52510995 -0.09431225 C141.44210808 -0.09095189 147.35895713 -0.09329625 153.27593422 -0.11056328 C158.8435648 -0.12610281 164.41085246 -0.1219993 169.97846985 -0.10325813 C172.01248296 -0.09959138 174.04652188 -0.10262431 176.08051109 -0.11314392 C195.81810934 -0.20736817 212.14755607 3.02435889 226.9597168 17.13452148 C228.08700195 18.25793945 228.08700195 18.25793945 229.23706055 19.40405273 C229.87514648 20.01893555 230.51323242 20.63381836 231.1706543 21.26733398 C242.07435655 32.6081557 246.74723944 48.25358552 246.57763672 63.65869141 C246.5780748 64.72343689 246.57851288 65.78818237 246.57896423 66.88519287 C246.57689338 70.36432984 246.55364303 73.8429699 246.5300293 77.32202148 C246.52442729 79.75010413 246.52016005 82.1781902 246.51716614 84.60627747 C246.50576508 90.96682253 246.47633883 97.3271589 246.4430542 103.68762207 C246.41225086 110.19007546 246.39863893 116.69256289 246.38354492 123.19506836 C246.35146448 135.93148501 246.30091042 148.66775772 246.23706055 161.40405273 C247.14334198 161.59288025 247.14334198 161.59288025 248.06793213 161.78552246 C248.86785583 161.95676636 249.66777954 162.12801025 250.49194336 162.30444336 C251.28175598 162.47157837 252.0715686 162.63871338 252.88531494 162.81091309 C256.49179577 163.72051265 259.68736258 165.21433014 262.98706055 166.90405273 C263.66953857 167.25008545 264.3520166 167.59611816 265.05517578 167.95263672 C272.09568927 171.65338796 278.20447049 176.25032657 284.23706055 181.40405273 C284.91124023 181.97639648 285.58541992 182.54874023 286.2800293 183.13842773 C299.55613669 195.41199155 308.77173343 214.10378927 310.6029377 231.97468185 C310.74088238 235.59415844 310.7637879 239.19372214 310.73535156 242.81567383 C310.73918884 244.18258248 310.74481976 245.54948706 310.7520752 246.91638184 C310.76389373 249.82515518 310.76364117 252.7335667 310.75348091 255.64234543 C310.73773561 260.25002449 310.75172159 264.8573419 310.76951599 269.46499634 C310.80013813 278.4072505 310.80184357 287.34939009 310.79986572 296.29168701 C310.7984666 307.69540751 310.80892906 319.09904097 310.84844345 330.50269759 C310.86330115 335.07564848 310.86316568 339.64827097 310.85096562 344.22122645 C310.8462334 347.06895987 310.85380603 349.91656907 310.86450958 352.76428223 C310.86803554 354.69830103 310.85668519 356.63232937 310.84477234 358.5663147 C310.88989223 366.36956763 310.95154382 374.11853601 316.73706055 379.90405273 C321.1327041 382.54143887 325.21082731 382.91907474 330.23706055 382.40405273 C335.4200589 380.60993792 337.64777767 378.19902103 340.23706055 373.40405273 C341.40388891 369.1036326 341.38946393 364.82404131 341.39527893 360.39982605 C341.4026859 359.1989788 341.4026859 359.1989788 341.4102425 357.97387201 C341.4255857 355.2945951 341.43396951 352.61534211 341.44238281 349.93603516 C341.45196383 348.01413768 341.46197405 346.0922423 341.47238159 344.17034912 C341.49941243 338.95388284 341.52043188 333.73740754 341.54038358 328.52091002 C341.56225433 323.06896174 341.5896377 317.61704123 341.61643982 312.16511536 C341.66635194 301.8415426 341.71129628 291.51795442 341.75446218 281.19435149 C341.80384719 269.44111554 341.85876064 257.68790746 341.91414177 245.93469846 C342.02793911 221.75784256 342.13478307 197.58095992 342.23706055 173.40405273 C341.30297363 173.10692383 340.36888672 172.80979492 339.40649414 172.50366211 C328.02327044 168.55434463 319.8281732 158.63924299 314.36206055 148.27905273 C310.69493254 140.33978234 309.60257892 133.16875235 310.23706055 124.40405273 C310.56706055 123.74405273 310.89706055 123.08405273 311.23706055 122.40405273 C310.45459961 122.17202148 309.67213867 121.93999023 308.8659668 121.70092773 C304.12851924 120.00788943 299.68569018 117.8716673 295.17456055 115.65405273 C294.28961914 115.23639648 293.40467773 114.81874023 292.49291992 114.38842773 C286.14767557 111.26578685 282.32947811 108.28997107 278.92456055 101.96655273 C277.3294256 96.02104975 278.03725272 91.48600009 280.98706055 86.20092773 C283.45949823 82.64679857 286.19459175 80.91509878 290.38088989 79.86764526 C297.76458388 78.77798344 302.37445931 80.66781214 308.85424805 84.09936523 C309.84311005 84.59800079 310.83197205 85.09663635 311.85079956 85.61038208 C313.93659257 86.66277486 316.01773454 87.72443149 318.09436035 88.7947998 C322.15444266 90.87380796 326.25304489 92.8685363 330.35479736 94.8637085 C334.36330113 96.81809651 338.35726565 98.80119233 342.35083008 100.78588867 C344.38846328 101.79627984 346.4282458 102.80234617 348.4699707 103.80444336 C351.48315086 105.28373584 354.48959701 106.77596832 357.49487305 108.27124023 C358.40310822 108.71402313 359.31134338 109.15680603 360.24710083 109.61300659 C366.38082043 112.69019399 371.48487879 115.82750742 374.23706055 122.40405273 C374.49006021 124.52966887 374.49006021 124.52966887 374.49432945 126.86356449 C374.50077834 127.75649427 374.50722724 128.64942404 374.51387155 129.56941229 C374.50922574 131.03480441 374.50922574 131.03480441 374.50448608 132.52980042 C374.51128275 134.09136923 374.51128275 134.09136923 374.51821673 135.6844849 C374.53090968 139.18423256 374.52923717 142.68382557 374.52758789 146.18359375 C374.53357024 148.68847352 374.5403751 151.19335145 374.54794312 153.69822693 C374.56380391 159.80414554 374.57005305 165.91000721 374.57116787 172.01594449 C374.57211844 176.98191248 374.57622922 181.94786774 374.58256912 186.91383171 C374.60018679 201.00089056 374.60940769 215.08791893 374.60790817 229.17498887 C374.60782826 229.93450817 374.60774835 230.69402747 374.60766602 231.4765625 C374.60758425 232.23701246 374.60750249 232.99746242 374.60741825 233.78095632 C374.60660618 246.09205638 374.62572248 258.40303384 374.65394275 270.71409846 C374.68270673 283.36251574 374.69648097 296.01087331 374.6947552 308.65932411 C374.69409229 315.757311 374.69954013 322.85516954 374.7211113 329.95312691 C374.74128363 336.6336041 374.74061346 343.313766 374.72607803 349.99427223 C374.72398938 352.44235886 374.72869412 354.89046245 374.74079895 357.33852005 C374.75628934 360.68913584 374.74691708 364.03882302 374.73153687 367.38941956 C374.74182399 368.35073258 374.75211112 369.31204561 374.76270998 370.30248934 C374.63929868 382.52855951 369.30333819 394.23117602 360.98706055 403.15405273 C350.52809401 412.88066275 337.96718939 417.05151721 323.88720703 416.87451172 C310.34850851 416.33799984 298.8264666 410.46395931 289.42456055 400.77905273 C282.672765 392.87569422 278.13262434 383.20828857 278.09230042 372.76477051 C278.08540192 371.61546051 278.07850342 370.46615051 278.07139587 369.28201294 C278.06747581 367.39626053 278.06747581 367.39626053 278.06347656 365.47241211 C278.05716817 364.13170152 278.05040205 362.79099302 278.04321289 361.45028687 C278.02855635 358.56382178 278.01682572 355.6773647 278.00726509 352.7908783 C277.99177688 348.21695199 277.96782419 343.64309414 277.94236755 339.06921387 C277.87127149 326.06270692 277.81156015 313.05616007 277.76025391 300.04956055 C277.73183971 292.86532126 277.69639476 285.68114946 277.65360016 278.49698114 C277.62699796 273.96093475 277.60898819 269.42496464 277.59756291 264.88885593 C277.58835649 262.04971219 277.5709572 259.21065999 277.55138397 256.37157059 C277.54049457 254.45117996 277.53916549 252.53074233 277.53825378 250.61032104 C277.39420482 233.24040393 274.27472182 219.55633657 261.8425293 206.98217773 C256.69083828 202.13911337 252.840531 199.70578796 246.23706055 196.40405273 C246.73206055 307.77905273 246.73206055 307.77905273 247.23706055 421.40405273 C254.49706055 425.03405273 261.75706055 428.66405273 269.23706055 432.40405273 C277.99150163 439.90785938 277.99150163 439.90785938 278.50448608 445.12252808 C278.51210968 446.16144196 278.51973328 447.20035583 278.52758789 448.27075195 C278.5403476 449.4523288 278.5531073 450.63390564 278.56625366 451.85128784 C278.56959213 453.76072678 278.56959213 453.76072678 278.57299805 455.70874023 C278.57965485 457.0206131 278.58631165 458.33248596 278.59317017 459.68411255 C278.6051325 462.45977061 278.60885211 465.23530432 278.60766602 468.01098633 C278.60746293 471.55746411 278.6347574 475.10313961 278.66921043 478.64942741 C278.69687619 482.04420989 278.69562991 485.43884655 278.69799805 488.83374023 C278.71236908 490.10265106 278.72674011 491.37156189 278.74154663 492.67892456 C278.68531831 503.53375116 278.68531831 503.53375116 274.23706055 508.40405273 C273.72143555 509.00217773 273.20581055 509.60030273 272.67456055 510.21655273 C269.512367 512.82879958 266.11929454 512.53191814 262.21836472 512.53827381 C260.95223587 512.54273166 259.68610702 512.5471895 258.38161063 512.55178243 C256.96857944 512.55169313 255.55554826 512.55150327 254.14251709 512.55122375 C252.64761327 512.55452231 251.15271033 512.55824786 249.65780854 512.56236523 C245.53932824 512.57239423 241.42086252 512.57610347 237.30237174 512.57875454 C232.86461501 512.58265489 228.42686984 512.59223336 223.98912048 512.60096741 C213.26722168 512.62073869 202.54532192 512.63079853 191.82340944 512.6396952 C186.77658233 512.64407671 181.72975627 512.64944385 176.68292999 512.65468407 C159.91041659 512.67169645 143.13790385 512.68619146 126.36538315 512.69343281 C122.0118993 512.69534276 117.65841546 512.69726308 113.30493164 512.69921875 C112.22287116 512.69970249 111.14081067 512.70018623 110.02596048 512.70068463 C92.49039451 512.70898806 74.95489669 512.73433022 57.41936049 512.76679943 C39.42378285 512.79984936 21.42823988 512.81787967 3.43263173 512.82107705 C-6.67442344 512.82324398 -16.78137921 512.8320195 -26.88840485 512.85753822 C-35.49450421 512.87921694 -44.10048004 512.88730957 -52.70660362 512.87757144 C-57.09836613 512.87301862 -61.4898736 512.87496987 -65.88160133 512.89433289 C-69.90234605 512.91190734 -73.92264858 512.91101368 -77.94339761 512.89543559 C-79.39766778 512.8930508 -80.85196811 512.89742817 -82.30619207 512.90926424 C-95.89872093 513.01303952 -95.89872093 513.01303952 -101.76293945 508.40405273 C-106.86398701 502.22198505 -106.34497647 495.77531418 -106.29418945 488.02514648 C-106.29801636 486.73971451 -106.30184326 485.45428253 -106.30578613 484.12989807 C-106.31165856 481.41908371 -106.30319117 478.70879927 -106.28442383 475.99804688 C-106.26161129 472.53563327 -106.2747841 469.07445857 -106.29871368 465.61209011 C-106.31669701 462.29134462 -106.30408323 458.97092709 -106.29418945 455.65014648 C-106.30228638 454.4125206 -106.3103833 453.17489471 -106.31872559 451.89976501 C-106.20137692 441.12060566 -106.20137692 441.12060566 -101.76293945 436.40405273 C-96.99506308 431.98948187 -91.23466322 429.4740006 -85.45043945 426.65405273 C-84.42370117 426.14745117 -83.39696289 425.64084961 -82.33911133 425.11889648 C-79.81635869 423.87512077 -77.29097144 422.63705286 -74.76293945 421.40405273 C-74.76234236 420.62819629 -74.76174528 419.85233986 -74.76113009 419.05297261 C-74.72522095 373.04948779 -74.66855861 327.04606853 -74.5850185 281.04264428 C-74.57500128 275.51654828 -74.56515711 269.99045197 -74.55541992 264.46435547 C-74.55347855 263.36422865 -74.55153718 262.26410184 -74.54953697 261.13063785 C-74.51853239 243.32737608 -74.50154062 225.5241272 -74.48974523 207.72084353 C-74.4773257 189.44731351 -74.44980613 171.17385101 -74.40832639 152.90036362 C-74.38321403 141.62846424 -74.36982053 130.35667688 -74.37150988 119.08474912 C-74.37153968 111.35075253 -74.35687632 103.61686986 -74.33077517 95.88291768 C-74.31615587 91.42362415 -74.30790339 86.96456427 -74.31713676 82.50525093 C-74.32546118 78.41557369 -74.3151669 74.32636463 -74.29060283 70.23675659 C-74.28494781 68.7641362 -74.28588994 67.291471 -74.29442701 65.8188645 C-74.39486788 46.85528983 -67.95885669 31.08570926 -54.76293945 17.40405273 C-47.85164116 11.3236209 -40.47619559 6.45313598 -31.76293945 3.40405273 C-31.11119153 3.15768538 -30.45944361 2.91131804 -29.78794575 2.65748501 C-20.05847663 -0.54106456 -10.11813064 -0.02491054 0 0 Z M-32.76293945 42.40405273 C-39.66400083 51.40468889 -41.88552156 59.7589555 -41.8904314 71.08952427 C-41.89343905 72.40255136 -41.8964467 73.71557845 -41.89954549 75.06839424 C-41.89785822 76.51357823 -41.89608717 77.95876213 -41.89424133 79.40394592 C-41.89594466 80.94838703 -41.89809488 82.4928277 -41.90065259 84.03726763 C-41.90524062 87.39023212 -41.90667221 90.74317818 -41.90568733 94.09614563 C-41.90409173 99.55193301 -41.90930262 105.00770215 -41.91531372 110.46348572 C-41.92341984 118.38367266 -41.92836809 126.30385639 -41.93160439 134.22404671 C-41.9371043 146.73990864 -41.95400414 159.25574338 -41.97294617 171.77159119 C-41.9793025 176.05412765 -41.98561095 180.33666418 -41.99192333 184.61920071 C-41.99429898 186.2244567 -41.99429898 186.2244567 -41.99672261 187.8621421 C-42.01465264 200.03895216 -42.03088341 212.21576413 -42.04589844 224.39257812 C-42.04727431 225.50553568 -42.04865018 226.61849323 -42.05006775 227.76517677 C-42.07201475 245.81521889 -42.08275863 263.865254 -42.09026919 281.91530711 C-42.09833503 300.44553257 -42.12160578 318.9756978 -42.15822285 337.50588888 C-42.18026503 348.93720153 -42.18990727 360.36839042 -42.18372252 371.79972326 C-42.18055236 379.62890798 -42.19184867 387.45798681 -42.21461693 395.28713877 C-42.22730605 399.80637591 -42.23342878 404.32537721 -42.22220039 408.84462357 C-42.21205621 412.98052437 -42.22023039 417.11596664 -42.24306335 421.25181311 C-42.24807075 422.74900186 -42.24630483 424.24623156 -42.23713068 425.74340058 C-42.22564753 427.77705389 -42.24111582 429.81080607 -42.25792408 431.84442234 C-42.25890089 432.97447274 -42.2598777 434.10452314 -42.26088411 435.26881748 C-42.88345175 439.15662791 -44.34474453 441.3318615 -46.76293945 444.40405273 C-49.26489258 446.1550293 -49.26489258 446.1550293 -52.04418945 447.54467773 C-53.55432617 448.31424805 -53.55432617 448.31424805 -55.0949707 449.09936523 C-56.66311523 449.86893555 -56.66311523 449.86893555 -58.26293945 450.65405273 C-59.30836914 451.18256836 -60.35379883 451.71108398 -61.4309082 452.25561523 C-64.20123758 453.65319497 -66.97987182 455.03207209 -69.76293945 456.40405273 C-71.08293945 457.06405273 -72.40293945 457.72405273 -73.76293945 458.40405273 C-73.76293945 465.66405273 -73.76293945 472.92405273 -73.76293945 480.40405273 C31.83706055 480.40405273 137.43706055 480.40405273 246.23706055 480.40405273 C246.23706055 473.14405273 246.23706055 465.88405273 246.23706055 458.40405273 C243.72532227 457.19168945 243.72532227 457.19168945 241.1628418 455.95483398 C238.95815214 454.8759433 236.75373947 453.79648646 234.54956055 452.71655273 C233.44676758 452.18610352 232.34397461 451.6556543 231.20776367 451.10913086 C224.20928635 447.66275079 219.5938866 444.93929181 215.23706055 438.40405273 C214.98455286 435.64601564 214.98455286 435.64601564 214.98093414 432.22473907 C214.971586 430.27176997 214.971586 430.27176997 214.96204901 428.27934694 C214.96520801 426.82583866 214.9685468 425.37233075 214.9720459 423.91882324 C214.96847728 422.38139613 214.96402759 420.84397086 214.95876932 419.3065486 C214.94681046 415.0703534 214.94729195 410.83423529 214.94970441 406.59802723 C214.95012282 402.0333966 214.93903565 397.4687929 214.929245 392.9041748 C214.91376771 384.98938362 214.90537546 377.0746103 214.90153503 369.1598053 C214.89579265 357.70426362 214.87721322 346.24877002 214.85509449 334.79324955 C214.81934589 316.19282201 214.79104718 297.59239175 214.76879883 278.99194336 C214.76746384 277.87803535 214.76612885 276.76412735 214.7647534 275.61646456 C214.75532856 267.7123275 214.7461671 259.80819016 214.73706055 251.90405273 C214.72666931 242.88907855 214.71615006 233.87410453 214.70532227 224.85913086 C214.70399152 223.74900212 214.70266078 222.63887338 214.70128971 221.49510437 C214.67884786 202.97516926 214.64864405 184.45525456 214.61292982 165.9353404 C214.59127841 154.51201564 214.57664796 143.08872266 214.57109106 131.66537851 C214.56683872 123.83241214 214.55558732 115.99947599 214.53886712 108.16652638 C214.52947648 103.64878296 214.5233425 99.13109604 214.5259304 94.61334229 C214.52825131 90.47282602 214.52136784 86.3324282 214.50735158 82.19193596 C214.50390589 80.69857325 214.50378222 79.20519816 214.50742418 77.71183592 C214.53631394 64.57736624 214.36690627 51.73898936 204.98706055 41.65405273 C193.74742927 31.17804821 179.06624671 32.11016905 164.65136719 32.14526367 C162.77613693 32.14255008 160.90090773 32.13898709 159.02568054 32.13464355 C153.95542109 32.12556044 148.88524345 32.12904711 143.81498265 32.13540173 C138.49501537 32.14048362 133.17505485 32.13576413 127.85508728 32.13262939 C118.92193349 32.12899581 109.98881282 32.13377258 101.05566406 32.14331055 C90.74690757 32.15419058 80.43823022 32.15067033 70.12947565 32.13965774 C61.25952958 32.13056357 52.38960726 32.12931009 43.51965803 32.13453507 C38.23044408 32.1376435 32.94126726 32.13809528 27.65205574 32.1314621 C22.67712919 32.12565836 17.70230405 32.12974069 12.72738838 32.14125061 C10.90819975 32.1438812 9.08900249 32.14315969 7.26981735 32.13872528 C-14.41534651 31.93143568 -14.41534651 31.93143568 -32.76293945 42.40405273 Z " fill="#FFFFFF" transform="translate(121.762939453125,-0.404052734375)"/>
<path d="M0 0 C1.05489624 -0.00935994 1.05489624 -0.00935994 2.13110352 -0.01890898 C4.47576936 -0.03479977 6.81938988 -0.02225106 9.1640625 -0.00964355 C10.84977828 -0.01506645 12.53548932 -0.02219005 14.22119141 -0.03088379 C18.79145963 -0.04910026 23.36136618 -0.04205658 27.93164062 -0.02936745 C32.71745774 -0.01923109 37.50324416 -0.02863489 42.2890625 -0.03491211 C50.32557731 -0.04218666 58.36194503 -0.03260586 66.3984375 -0.0135498 C75.68597197 0.00821857 84.97315519 0.00116706 94.26068115 -0.02085543 C102.23877974 -0.0390149 110.21677267 -0.04156507 118.19488525 -0.03110075 C122.95810706 -0.02486883 127.72116384 -0.02402189 132.484375 -0.0372467 C136.96279317 -0.04881255 141.44075904 -0.04076615 145.91912842 -0.01766968 C147.56141408 -0.0123865 149.20373788 -0.01388971 150.8460083 -0.02272034 C153.09055875 -0.03367555 155.33366615 -0.01991476 157.578125 0 C158.83318848 0.0015081 160.08825195 0.0030162 161.38134766 0.00457001 C166.5241013 0.76422275 169.57374277 3.25759468 173.13171387 6.91809082 C175.70500913 12.49188968 175.34507701 17.87822287 175.30664062 23.94543457 C175.3120655 25.31588483 175.31919021 26.68632925 175.32788086 28.0567627 C175.34607417 31.76758193 175.33906352 35.47795498 175.32636452 39.18878174 C175.31621599 43.07773006 175.32563533 46.96664095 175.33190918 50.85559082 C175.33918022 57.38560829 175.32961226 63.91544462 175.31054688 70.44543457 C175.28877904 77.98798642 175.2958308 85.53010573 175.3178525 93.07264709 C175.33602209 99.55607294 175.33855724 106.0393688 175.32809782 112.52281189 C175.32187141 116.39178555 175.32100361 120.2605561 175.33424377 124.1295166 C175.34582454 127.76749859 175.33773676 131.40492457 175.31466675 135.04284668 C175.30688097 137.00971722 175.31871659 138.97663496 175.33117676 140.94348145 C175.22581417 151.94333528 175.22581417 151.94333528 170.7890625 156.50793457 C166.25449991 160.07217379 163.32104166 161.00896837 157.578125 161.01586914 C156.87486084 161.0221091 156.17159668 161.02834907 155.44702148 161.03477812 C153.10235564 161.05066891 150.75873512 161.0381202 148.4140625 161.0255127 C146.72834672 161.03093559 145.04263568 161.03805919 143.35693359 161.04675293 C138.78666537 161.0649694 134.21675882 161.05792572 129.64648438 161.04523659 C124.86066726 161.03510023 120.07488084 161.04450404 115.2890625 161.05078125 C107.25254769 161.0580558 99.21617997 161.048475 91.1796875 161.02941895 C81.89215303 161.00765057 72.60496981 161.01470208 63.31744385 161.03672457 C55.33934526 161.05488404 47.36135233 161.05743421 39.38323975 161.04696989 C34.62001794 161.04073798 29.85696116 161.03989103 25.09375 161.05311584 C20.61533183 161.06468169 16.13736596 161.05663529 11.65899658 161.03353882 C10.01671092 161.02825564 8.37438712 161.02975885 6.7321167 161.03858948 C4.48756625 161.04954469 2.24445885 161.0357839 0 161.01586914 C-1.25506348 161.01436104 -2.51012695 161.01285294 -3.80322266 161.01129913 C-8.9459763 160.25164639 -11.99561777 157.75827446 -15.55358887 154.09777832 C-18.12688413 148.52397946 -17.76695201 143.13764627 -17.72851562 137.07043457 C-17.7339405 135.69998431 -17.74106521 134.32953989 -17.74975586 132.95910645 C-17.76794917 129.24828721 -17.76093852 125.53791416 -17.74823952 121.8270874 C-17.73809099 117.93813908 -17.74751033 114.04922819 -17.75378418 110.16027832 C-17.76105522 103.63026085 -17.75148726 97.10042452 -17.73242188 90.57043457 C-17.71065404 83.02788272 -17.7177058 75.48576341 -17.7397275 67.94322205 C-17.75789709 61.4597962 -17.76043224 54.97650034 -17.74997282 48.49305725 C-17.74374641 44.62408359 -17.74287861 40.75531304 -17.75611877 36.88635254 C-17.76769954 33.24837055 -17.75961176 29.61094457 -17.73654175 25.97302246 C-17.72875597 24.00615192 -17.74059159 22.03923418 -17.75305176 20.0723877 C-17.64768917 9.07253386 -17.64768917 9.07253386 -13.2109375 4.50793457 C-8.67637491 0.94369535 -5.74291666 0.00690077 0 0 Z M14.7890625 32.50793457 C14.7890625 64.18793457 14.7890625 95.86793457 14.7890625 128.50793457 C57.0290625 128.50793457 99.2690625 128.50793457 142.7890625 128.50793457 C142.7890625 96.82793457 142.7890625 65.14793457 142.7890625 32.50793457 C100.5490625 32.50793457 58.3090625 32.50793457 14.7890625 32.50793457 Z " fill="#FFFFFF" transform="translate(129.2109375,79.4920654296875)"/>
</svg>
